<svg xmlns="http://www.w3.org/2000/svg" width="86" height="56" viewBox="0 0 86 56" fill="none">
<path d="M45.9306 36.8694V19.2788H75.0134C78.626 19.2788 82.065 17.1788 84.0408 13.4894C84.1482 13.2753 84.2557 13.0777 84.3632 12.8635C85.2643 10.9612 85.8512 8.76236 85.9669 6.43177C85.9835 6.09413 86 5.76472 86 5.42707C86 3.50824 85.7107 1.68001 85.1568 0.0164795H40.4083V12.8718H16.8065C12.2267 12.8718 7.82044 15.1282 4.81957 19.2129C4.80304 19.2459 4.7865 19.2706 4.7617 19.2871C1.79391 23.3553 0 28.6753 0 34.4894C0 35.2965 0.0330674 36.0871 0.107469 36.8694C0.28934 39.1259 0.752283 41.2918 1.45496 43.3012H40.4083V56H75.2614C79.0145 56 82.5445 53.6365 84.3962 49.6588C84.4128 49.6259 84.4293 49.6012 84.4458 49.5847C85.3221 47.7071 85.8512 45.5741 85.9752 43.3012C85.9917 42.98 86.0083 42.6424 86.0083 42.3212C86.0083 40.3859 85.7024 38.5577 85.165 36.8612H45.9389L45.9306 36.8694ZM45.9306 6.42354H81.2052C81.2052 6.42354 81.1722 6.48119 81.1722 6.49766C79.8247 10.4012 76.6254 12.8553 73.1699 12.8553H45.9306V6.42354ZM40.4083 36.8694H5.29905C5.28252 36.6718 5.28252 36.4577 5.28252 36.26C5.28252 35.9718 5.29905 35.6835 5.29905 35.4035C5.60492 26.3447 12.0944 19.2706 19.766 19.2706H34.7208C34.6712 19.2129 34.6464 19.1471 34.5968 19.0894C34.6546 19.1635 34.7208 19.2129 34.7952 19.2706H40.4083V36.8612V36.8694ZM81.197 43.3835C79.8825 47.1965 76.7411 49.593 73.3765 49.593H45.9389V43.3094H81.2135C81.2135 43.3094 81.197 43.3671 81.197 43.3835Z" fill="white"/>
</svg>